<?xml version="1.0" standalone="no"?>
<!DOCTYPE svg PUBLIC "-//W3C//DTD SVG 20010904//EN"
 "http://www.w3.org/TR/2001/REC-SVG-20010904/DTD/svg10.dtd">
<svg version="1.0" xmlns="http://www.w3.org/2000/svg"
 width="147.000000pt" height="145.000000pt" viewBox="0 0 147.000000 145.000000"
 preserveAspectRatio="xMidYMid meet">
<defs><style>.a{fill:#d93c44;}</style></defs>
<g transform="translate(0.000000,145.000000) scale(0.100000,-0.100000)" stroke="none">
<path class="a" d="M225 1408 c-11 -5 -31 -24 -45 -41 l-25 -31 -3 -394 c-2 -367 -1
-396 15 -414 48 -53 147 -75 212 -48 l31 12 0 286 c0 189 4 298 12 324 15 52
78 122 128 142 22 9 40 18 40 20 0 2 -28 20 -62 39 -35 19 -96 53 -137 76 -76
42 -124 51 -166 29z"/>
<path class="a" d="M640 1169 c-42 -17 -100 -81 -111 -122 -6 -22 -9 -40 -7 -42 2 -1 46
-26 98 -55 52 -29 102 -58 110 -65 8 -7 47 -29 85 -50 131 -70 201 -115 233
-147 37 -39 62 -104 62 -164 0 -24 2 -44 4 -44 3 0 26 13 53 29 26 15 81 47
121 71 93 55 112 79 112 141 0 72 -30 97 -280 240 -118 67 -253 144 -300 170
-88 50 -127 59 -180 38z"/>
<path class="a" d="M820 606 c-41 -24 -120 -69 -175 -101 -299 -173 -315 -179 -406 -147
-30 10 -62 22 -71 27 -17 7 -18 -3 -18 -124 0 -151 11 -190 62 -221 61 -37 92
-29 265 71 87 50 234 134 327 187 181 104 196 119 196 194 0 64 -60 160 -97
157 -4 0 -42 -20 -83 -43z"/>
</g>
</svg>
